<svg width="38" height="38" viewBox="0 0 38 38" fill="none" xmlns="http://www.w3.org/2000/svg">
<path d="M11.4747 4.36806C13.225 5.64367 14.5879 7.3848 15.7517 9.0509L16.4286 10.0371L17.0672 10.9789C17.3866 11.4455 17.5232 12.0133 17.4509 12.5742C17.3786 13.135 17.1025 13.6497 16.6751 14.0201L13.6875 16.239C13.5432 16.3432 13.4416 16.4963 13.4016 16.6698C13.3616 16.8433 13.3859 17.0254 13.4701 17.1823C14.1469 18.412 15.3505 20.2435 16.7287 21.6217C18.107 22.9999 20.0257 24.2831 21.3411 25.0365C21.5061 25.1291 21.7002 25.155 21.8836 25.1089C22.067 25.0627 22.2258 24.9481 22.3273 24.7885L24.2721 21.8284C24.6297 21.3534 25.1571 21.0353 25.744 20.9405C26.3309 20.8457 26.9317 20.9817 27.4206 21.32L28.4358 22.0229C30.3332 23.3398 32.3714 24.8359 33.9303 26.8313C34.1775 27.1495 34.3348 27.5282 34.3857 27.928C34.4366 28.3277 34.3793 28.7338 34.2197 29.1038C32.938 32.0945 29.6946 34.6411 26.3211 34.5171L25.8617 34.491L25.5048 34.4604L25.1098 34.4145L24.6795 34.3563L24.2124 34.2797L23.9674 34.2338L23.4529 34.1235L23.1833 34.0623L22.6229 33.9183L22.0333 33.7499L21.4177 33.5508C18.5909 32.5922 15.0029 30.7086 11.3216 27.0273C7.64025 23.3459 5.75823 19.7595 4.79961 16.9327L4.60054 16.3171L4.43209 15.7275L4.28815 15.1671L4.1687 14.6372C4.13424 14.4713 4.10208 14.3048 4.07223 14.138L3.99566 13.6709L3.93441 13.2406L3.89 12.8456L3.85937 12.4888L3.83487 12.0294C3.71083 8.66653 6.28501 5.40019 9.26194 4.12458C9.62023 3.96986 10.0126 3.91096 10.4005 3.95365C10.7885 3.99633 11.1586 4.13914 11.4747 4.36806ZM23.9322 9.87323L24.1098 9.89313C25.2245 10.0898 26.2483 10.6342 27.0345 11.4485C27.8207 12.2627 28.3289 13.305 28.4864 14.4259C28.5425 14.8136 28.4479 15.2081 28.222 15.5282C27.9962 15.8482 27.6563 16.0696 27.2722 16.1467C26.8881 16.2238 26.4891 16.1508 26.1572 15.9426C25.8253 15.7345 25.5858 15.407 25.488 15.0277L25.4528 14.8516C25.3912 14.4123 25.2037 14.0002 24.9129 13.6651C24.6221 13.33 24.2405 13.0863 23.8143 12.9635L23.5769 12.9099C23.1924 12.8417 22.8484 12.6292 22.6154 12.3159C22.3823 12.0025 22.2778 11.612 22.3232 11.2241C22.3686 10.8362 22.5604 10.4803 22.8595 10.2292C23.1586 9.97813 23.5423 9.85078 23.9322 9.87323ZM23.9444 5.21796C26.3812 5.21796 28.7182 6.18598 30.4413 7.90907C32.1644 9.63216 33.1324 11.9692 33.1324 14.406C33.132 14.7963 32.9826 15.1717 32.7146 15.4555C32.4467 15.7393 32.0805 15.9101 31.6909 15.933C31.3012 15.9559 30.9176 15.8291 30.6182 15.5786C30.3189 15.3281 30.1266 14.9727 30.0805 14.5852L30.0698 14.406C30.0696 12.851 29.4781 11.3543 28.4151 10.2194C27.3521 9.08444 25.8973 8.39627 24.3456 8.29442L23.9444 8.28063C23.5383 8.28063 23.1488 8.1193 22.8616 7.83211C22.5744 7.54493 22.4131 7.15543 22.4131 6.7493C22.4131 6.34316 22.5744 5.95366 22.8616 5.66648C23.1488 5.37929 23.5383 5.21796 23.9444 5.21796Z" fill="white"/>
</svg>
