<svg width="31" height="32" viewBox="0 0 31 32" fill="none" xmlns="http://www.w3.org/2000/svg">
<path d="M26.1675 5.14344C24.7634 3.72567 23.0912 2.60152 21.2484 1.8365C19.4055 1.07148 17.4288 0.680896 15.4334 0.687506C7.07279 0.687506 0.258731 7.50157 0.258731 15.8622C0.258731 18.5419 0.963106 21.145 2.27998 23.4419L0.13623 31.3125L8.17529 29.1994C10.3956 30.4091 12.8915 31.0522 15.4334 31.0522C23.794 31.0522 30.6081 24.2381 30.6081 15.8775C30.6081 11.8197 29.0309 8.00688 26.1675 5.14344ZM15.4334 28.4797C13.1672 28.4797 10.9469 27.8672 9.00217 26.7188L8.54279 26.4431L3.76529 27.6988L5.03623 23.0438L4.72998 22.5691C3.4706 20.5586 2.80202 18.2345 2.80061 15.8622C2.80061 8.91032 8.46623 3.24469 15.4181 3.24469C18.7869 3.24469 21.9565 4.56157 24.33 6.95032C25.5054 8.11998 26.4369 9.5114 27.0703 11.0439C27.7038 12.5763 28.0267 14.2193 28.0203 15.8775C28.0509 22.8294 22.3853 28.4797 15.4334 28.4797ZM22.3547 19.0472C21.9719 18.8634 20.1037 17.9447 19.7669 17.8069C19.4147 17.6844 19.1697 17.6231 18.9094 17.9906C18.649 18.3734 17.9294 19.2309 17.715 19.4759C17.5006 19.7363 17.2709 19.7669 16.8881 19.5678C16.5053 19.3841 15.2803 18.9706 13.8409 17.6844C12.7078 16.6738 11.9575 15.4334 11.7278 15.0506C11.5134 14.6678 11.6972 14.4688 11.8962 14.2697C12.0647 14.1013 12.279 13.8256 12.4628 13.6113C12.6465 13.3969 12.7231 13.2284 12.8456 12.9834C12.9681 12.7231 12.9069 12.5088 12.815 12.325C12.7231 12.1413 11.9575 10.2731 11.6512 9.50751C11.345 8.77251 11.0234 8.86438 10.7937 8.84907H10.0587C9.79842 8.84907 9.40029 8.94094 9.04811 9.32376C8.71123 9.70657 7.73123 10.6253 7.73123 12.4934C7.73123 14.3616 9.09404 16.1684 9.27779 16.4134C9.46154 16.6738 11.9575 20.5019 15.755 22.1403C16.6584 22.5384 17.3628 22.7681 17.914 22.9366C18.8175 23.2275 19.6444 23.1816 20.3028 23.0897C21.0378 22.9825 22.5537 22.1709 22.86 21.2828C23.1815 20.3947 23.1815 19.6444 23.0744 19.4759C22.9672 19.3075 22.7375 19.2309 22.3547 19.0472Z" fill="white"/>
</svg>
